<svg width="61" height="62" viewBox="0 0 61 62" fill="none" xmlns="http://www.w3.org/2000/svg">
<rect y="0.957764" width="60.4225" height="60.4225" rx="10.9859" fill="#F4F7FC"/>
<path d="M38.7944 23.3301V37.6347C38.7944 38.5216 38.7658 39.3084 38.6657 40.0093C38.2508 43.7714 36.4771 44.787 31.6421 44.787H28.7812C23.9462 44.787 22.1725 43.7714 21.7576 40.0093C21.6575 39.3084 21.6289 38.5216 21.6289 37.6347V23.3301C21.6289 22.4433 21.6575 21.6565 21.7576 20.9556C22.1725 17.1935 23.9462 16.1779 28.7812 16.1779H31.6421C36.4771 16.1779 38.2508 17.1935 38.6657 20.9556C38.7658 21.6565 38.7944 22.4433 38.7944 23.3301Z" stroke="#909EB8" stroke-width="2.4" stroke-linecap="round" stroke-linejoin="round"/>
<path d="M21.6281 37.6347C21.6281 38.5216 21.6567 39.3084 21.7568 40.0093C21.5566 40.0236 21.3706 40.0236 21.156 40.0236H20.6697C16.8647 40.0236 15.9062 39.0652 15.9062 35.2459V25.719C15.9062 21.8997 16.8647 20.9413 20.6697 20.9413H21.156C21.3706 20.9413 21.5566 20.9413 21.7568 20.9556C21.6567 21.6565 21.6281 22.4433 21.6281 23.3301V37.6347Z" stroke="#909EB8" stroke-width="2.4" stroke-linecap="round" stroke-linejoin="round"/>
<path d="M44.5156 25.719V35.2459C44.5156 39.0652 43.5572 40.0236 39.7522 40.0236H39.2658C39.0513 40.0236 38.8653 40.0236 38.665 40.0093C38.7652 39.3084 38.7938 38.5216 38.7938 37.6347V23.3301C38.7938 22.4433 38.7652 21.6565 38.665 20.9556C38.8653 20.9413 39.0513 20.9413 39.2658 20.9413H39.7522C43.5572 20.9413 44.5156 21.8997 44.5156 25.719Z" stroke="#909EB8" stroke-width="2.4" stroke-linecap="round" stroke-linejoin="round"/>
</svg>
