<svg width="61" height="62" viewBox="0 0 61 62" fill="none" xmlns="http://www.w3.org/2000/svg">
<rect y="0.985901" width="60.4225" height="60.4225" rx="10.9859" fill="#F0F7FF"/>
<path d="M26.4853 19.9692H21.2637C20.3405 19.9692 19.4551 20.3486 18.8023 21.024C18.1495 21.6993 17.7827 22.6152 17.7827 23.5703V39.775C17.7827 40.7301 18.1495 41.646 18.8023 42.3213C19.4551 42.9967 20.3405 43.3761 21.2637 43.3761H36.9283C37.8515 43.3761 38.7369 42.9967 39.3897 42.3213C40.0426 41.646 40.4093 40.7301 40.4093 39.775V34.3734" stroke="#006DF6" stroke-width="2.4" stroke-linecap="round" stroke-linejoin="round"/>
<path d="M38.8488 26.9912C41.8652 26.9912 44.3104 24.546 44.3104 21.5296C44.3104 18.5133 41.8652 16.0681 38.8488 16.0681C35.8324 16.0681 33.3872 18.5133 33.3872 21.5296C33.3872 24.546 35.8324 26.9912 38.8488 26.9912Z" stroke="#006DF6" stroke-width="2.4" stroke-linecap="round" stroke-linejoin="round"/>
</svg>
