<svg width="61" height="62" viewBox="0 0 61 62" fill="none" xmlns="http://www.w3.org/2000/svg">
<rect y="0.971802" width="60.4225" height="60.4225" rx="10.9859" fill="#F4F7FC"/>
<path d="M21.2526 24.3788C20.5437 24.3788 19.8508 24.1686 19.2614 23.7747C18.672 23.3809 18.2126 22.8211 17.9413 22.1662C17.67 21.5113 17.599 20.7906 17.7373 20.0954C17.8756 19.4001 18.217 18.7615 18.7182 18.2602C19.2195 17.759 19.8581 17.4176 20.5534 17.2793C21.2486 17.141 21.9693 17.212 22.6242 17.4833C23.2791 17.7546 23.8389 18.2139 24.2327 18.8034C24.6266 19.3928 24.8368 20.0857 24.8368 20.7946V38.7154C24.8368 39.4243 24.6266 40.1172 24.2327 40.7066C23.8389 41.296 23.2791 41.7554 22.6242 42.0267C21.9693 42.298 21.2486 42.369 20.5534 42.2307C19.8581 42.0924 19.2195 41.751 18.7182 41.2498C18.217 40.7485 17.8756 40.1099 17.7373 39.4146C17.599 38.7194 17.67 37.9987 17.9413 37.3438C18.2126 36.6889 18.672 36.1291 19.2614 35.7353C19.8508 35.3414 20.5437 35.1312 21.2526 35.1312H39.1734C39.8823 35.1312 40.5752 35.3414 41.1646 35.7353C41.754 36.1291 42.2134 36.6889 42.4847 37.3438C42.756 37.9987 42.827 38.7194 42.6887 39.4146C42.5504 40.1099 42.209 40.7485 41.7078 41.2498C41.2065 41.751 40.5679 42.0924 39.8726 42.2307C39.1774 42.369 38.4567 42.298 37.8018 42.0267C37.1469 41.7554 36.5871 41.296 36.1933 40.7066C35.7994 40.1172 35.5892 39.4243 35.5892 38.7154V20.7946C35.5892 20.0857 35.7994 19.3928 36.1933 18.8034C36.5871 18.2139 37.1469 17.7546 37.8018 17.4833C38.4567 17.212 39.1774 17.141 39.8726 17.2793C40.5679 17.4176 41.2065 17.759 41.7078 18.2602C42.209 18.7615 42.5504 19.4001 42.6887 20.0954C42.827 20.7906 42.756 21.5113 42.4847 22.1662C42.2134 22.8211 41.754 23.3809 41.1646 23.7747C40.5752 24.1686 39.8823 24.3788 39.1734 24.3788H21.2526Z" stroke="#909EB8" stroke-width="2.4" stroke-linecap="round" stroke-linejoin="round"/>
</svg>
