<svg width="61" height="62" viewBox="0 0 61 62" fill="none" xmlns="http://www.w3.org/2000/svg">
<rect y="0.929565" width="60.4225" height="60.4225" rx="10.9859" fill="#F4F7FD"/>
<path d="M37.0777 27.7077H39.8242C42.5707 27.7077 43.9439 26.3345 43.9439 23.588V20.8415C43.9439 18.095 42.5707 16.7218 39.8242 16.7218H37.0777C34.3312 16.7218 32.958 18.095 32.958 20.8415V23.588C32.958 26.3345 34.3312 27.7077 37.0777 27.7077Z" stroke="#909EB8" stroke-width="2.4" stroke-miterlimit="10" stroke-linecap="round" stroke-linejoin="round"/>
<path d="M20.5982 44.1866H23.3447C26.0912 44.1866 27.4644 42.8134 27.4644 40.0669V37.3204C27.4644 34.5739 26.0912 33.2007 23.3447 33.2007H20.5982C17.8518 33.2007 16.4785 34.5739 16.4785 37.3204V40.0669C16.4785 42.8134 17.8518 44.1866 20.5982 44.1866Z" stroke="#909EB8" stroke-width="2.4" stroke-miterlimit="10" stroke-linecap="round" stroke-linejoin="round"/>
<path d="M21.9715 27.7077C25.0052 27.7077 27.4644 25.2484 27.4644 22.2148C27.4644 19.1811 25.0052 16.7218 21.9715 16.7218C18.9378 16.7218 16.4785 19.1811 16.4785 22.2148C16.4785 25.2484 18.9378 27.7077 21.9715 27.7077Z" stroke="#909EB8" stroke-width="2.4" stroke-miterlimit="10" stroke-linecap="round" stroke-linejoin="round"/>
<path d="M38.451 44.1866C41.4846 44.1866 43.9439 41.7273 43.9439 38.6936C43.9439 35.66 41.4846 33.2007 38.451 33.2007C35.4173 33.2007 32.958 35.66 32.958 38.6936C32.958 41.7273 35.4173 44.1866 38.451 44.1866Z" stroke="#909EB8" stroke-width="2.4" stroke-miterlimit="10" stroke-linecap="round" stroke-linejoin="round"/>
</svg>
